{"asset":{"generator":"3D Builder","version":"2.0"},"scene":0,"scenes":[{"nodes":[0,1,2,3,4,5,6,7,8,9,10]}],"nodes":[{"mesh":0,"matrix":[1,0,0,0,0,-1.1920928955078125E-7,-0.99999988079071045,0,0,0.30045732855796814,-3.5817308230434719E-8,0,0,0.82097464799880981,0.0012626155512407422,1]},{"mesh":1,"matrix":[1,0,0,0,0,-1.1920928955078125E-7,-0.99999988079071045,0,0,0.99999988079071045,-1.1920928955078125E-7,0,0,0.81841123104095459,0.0012626159004867077,1]},{"mesh":2,"matrix":[1,0,0,0,0,-1.1920928955078125E-7,-0.99999988079071045,0,0,0.99999988079071045,-1.1920928955078125E-7,0,0,0.81841123104095459,0.0012626159004867077,1]},{"mesh":3,"matrix":[1,0,0,0,0,-1.1920928955078125E-7,-0.99999988079071045,0,0,0.99999988079071045,-1.1920928955078125E-7,0,0,0.81841123104095459,0.0012626159004867077,1]},{"mesh":4,"matrix":[1,0,0,0,0,-1.1920928955078125E-7,-0.99999988079071045,0,0,0.99999988079071045,-1.1920928955078125E-7,0,0,0.81841123104095459,0.0012626159004867077,1]},{"mesh":5,"matrix":[1,0,0,0,0,-1.1920928955078125E-7,-0.99999988079071045,0,0,0.99999988079071045,-1.1920928955078125E-7,0,0,0.81841123104095459,0.0012626159004867077,1]},{"mesh":6,"matrix":[1.0242615938186646,0,0,0,0,-1.1920928955078125E-7,-0.99999988079071045,0,0,0.99999988079071045,-1.1920928955078125E-7,0,0.06112806499004364,0.81841123104095459,0.0012626159004867077,1]},{"mesh":7,"matrix":[1,0,0,0,0,-1.1920928955078125E-7,-0.99999988079071045,0,0,0.99999988079071045,-1.1920928955078125E-7,0,0,0.81841123104095459,0.0012626159004867077,1]},{"mesh":8,"matrix":[1,0,0,0,0,-1.1920928955078125E-7,-0.99999988079071045,0,0,1.4656438827514648,-1.7471838020810537E-7,0,2.1316527636372484E-6,-1.035077691078186,0.0012628368567675352,1]},{"mesh":9,"matrix":[1,0,0,0,0,-1.1920928955078125E-7,-0.99999988079071045,0,0,0.99999988079071045,-1.1920928955078125E-7,0,0,0.81841123104095459,0.0012626159004867077,1]},{"mesh":10,"matrix":[0.99237364530563354,0,0,0,0,-1.1920928955078125E-7,-0.99999988079071045,0,0,0.99999988079071045,-1.1920928955078125E-7,0,-0.01932813785970211,0.81841123104095459,0.0012626159004867077,1]}],"meshes":[{"primitives":[{"attributes":{"POSITION":0},"mode":4,"indices":1,"material":0}]},{"primitives":[{"attributes":{"POSITION":2},"mode":4,"indices":3,"material":0}]},{"primitives":[{"attributes":{"POSITION":4},"mode":4,"indices":5,"material":0}]},{"primitives":[{"attributes":{"POSITION":6},"mode":4,"indices":7,"material":0}]},{"primitives":[{"attributes":{"POSITION":8},"mode":4,"indices":9,"material":0}]},{"primitives":[{"attributes":{"POSITION":10},"mode":4,"indices":11,"material":0}]},{"primitives":[{"attributes":{"POSITION":12},"mode":4,"indices":13,"material":0}]},{"primitives":[{"attributes":{"POSITION":14},"mode":4,"indices":15,"material":0}]},{"primitives":[{"attributes":{"POSITION":16},"mode":4,"indices":17,"material":0}]},{"primitives":[{"attributes":{"POSITION":18},"mode":4,"indices":19,"material":0}]},{"primitives":[{"attributes":{"POSITION":20},"mode":4,"indices":21,"material":0}]}],"materials":[{"name":"__GLTFLoader._default","pbrMetallicRoughness":{"baseColorFactor":[1,1,1,1],"metallicFactor":1,"roughnessFactor":1},"alphaMode":"OPAQUE"}],"accessors":[{"bufferView":0,"byteOffset":0,"count":8,"componentType":5126,"type":"VEC3","min":[2.2304849624633789,-0.6272430419921875,0.0036645010113716125],"max":[2.4804830551147461,0.55423641204833984,1.6525099277496338]},{"bufferView":1,"byteOffset":0,"count":36,"componentType":5125,"type":"SCALAR"},{"bufferView":2,"byteOffset":0,"count":8,"componentType":5126,"type":"VEC3","min":[-2.5195188522338867,1.1277543306350708,-0.019512014463543892],"max":[-2.2695188522338867,2.6277539730072021,3.9804844856262207]},{"bufferView":3,"byteOffset":0,"count":36,"componentType":5125,"type":"SCALAR"},{"bufferView":4,"byteOffset":0,"count":8,"componentType":5126,"type":"VEC3","min":[-2.5195188522338867,-2.627241849899292,-0.019512014463543892],"max":[-2.2695188522338867,-1.1272422075271606,3.9804844856262207]},{"bufferView":5,"byteOffset":0,"count":36,"componentType":5125,"type":"SCALAR"},{"bufferView":6,"byteOffset":0,"count":8,"componentType":5126,"type":"VEC3","min":[-2.5195188522338867,2.3777539730072021,-0.01951243169605732],"max":[2.4804811477661133,2.627753734588623,3.9804835319519043]},{"bufferView":7,"byteOffset":0,"count":36,"componentType":5125,"type":"SCALAR"},{"bufferView":8,"byteOffset":0,"count":8,"componentType":5126,"type":"VEC3","min":[-2.5195188522338867,-2.6272428035736084,-0.019513243809342384],"max":[2.4804811477661133,-2.3772428035736084,3.980482816696167]},{"bufferView":9,"byteOffset":0,"count":36,"componentType":5125,"type":"SCALAR"},{"bufferView":10,"byteOffset":0,"count":8,"componentType":5126,"type":"VEC3","min":[2.2304811477661133,0.50275504589080811,-0.019512074068188667],"max":[2.4804811477661133,2.5027542114257813,3.9804844856262207]},{"bufferView":11,"byteOffset":0,"count":36,"componentType":5125,"type":"SCALAR"},{"bufferView":12,"byteOffset":0,"count":8,"componentType":5126,"type":"VEC3","min":[-2.5195183753967285,-2.6343936920166016,-0.81841140985488892],"max":[2.3461089134216309,2.6369190216064453,0.003664432093501091]},{"bufferView":13,"byteOffset":0,"count":36,"componentType":5125,"type":"SCALAR"},{"bufferView":14,"byteOffset":0,"count":8,"componentType":5126,"type":"VEC3","min":[2.2304811477661133,-2.627241849899292,-0.019512074068188667],"max":[2.4804811477661133,-0.6272430419921875,3.9804844856262207]},{"bufferView":15,"byteOffset":0,"count":36,"componentType":5125,"type":"SCALAR"},{"bufferView":16,"byteOffset":0,"count":8,"componentType":5126,"type":"VEC3","min":[2.230482816696167,-0.6272435188293457,2.4913918972015381],"max":[2.4804821014404297,0.55424368381500244,3.9804854393005371]},{"bufferView":17,"byteOffset":0,"count":36,"componentType":5125,"type":"SCALAR"},{"bufferView":18,"byteOffset":0,"count":8,"componentType":5126,"type":"VEC3","min":[-2.5195174217224121,-1.1272422075271606,2.4913918972015381],"max":[-2.2695188522338867,1.1839861869812012,3.9804856777191162]},{"bufferView":19,"byteOffset":0,"count":36,"componentType":5125,"type":"SCALAR"},{"bufferView":20,"byteOffset":0,"count":6,"componentType":5126,"type":"VEC3","min":[-2.5344085693359375,-2.6304423809051514,3.9804837703704834],"max":[2.5344085693359375,2.6304423809051514,4.5017580986022949]},{"bufferView":21,"byteOffset":0,"count":24,"componentType":5125,"type":"SCALAR"}],"bufferViews":[{"buffer":0,"byteOffset":0,"byteLength":96,"byteStride":12,"target":34962},{"buffer":0,"byteOffset":96,"byteLength":144,"target":34963},{"buffer":0,"byteOffset":240,"byteLength":96,"byteStride":12,"target":34962},{"buffer":0,"byteOffset":336,"byteLength":144,"target":34963},{"buffer":0,"byteOffset":480,"byteLength":96,"byteStride":12,"target":34962},{"buffer":0,"byteOffset":576,"byteLength":144,"target":34963},{"buffer":0,"byteOffset":720,"byteLength":96,"byteStride":12,"target":34962},{"buffer":0,"byteOffset":816,"byteLength":144,"target":34963},{"buffer":0,"byteOffset":960,"byteLength":96,"byteStride":12,"target":34962},{"buffer":0,"byteOffset":1056,"byteLength":144,"target":34963},{"buffer":0,"byteOffset":1200,"byteLength":96,"byteStride":12,"target":34962},{"buffer":0,"byteOffset":1296,"byteLength":144,"target":34963},{"buffer":0,"byteOffset":1440,"byteLength":96,"byteStride":12,"target":34962},{"buffer":0,"byteOffset":1536,"byteLength":144,"target":34963},{"buffer":0,"byteOffset":1680,"byteLength":96,"byteStride":12,"target":34962},{"buffer":0,"byteOffset":1776,"byteLength":144,"target":34963},{"buffer":0,"byteOffset":1920,"byteLength":96,"byteStride":12,"target":34962},{"buffer":0,"byteOffset":2016,"byteLength":144,"target":34963},{"buffer":0,"byteOffset":2160,"byteLength":96,"byteStride":12,"target":34962},{"buffer":0,"byteOffset":2256,"byteLength":144,"target":34963},{"buffer":0,"byteOffset":2400,"byteLength":72,"byteStride":12,"target":34962},{"buffer":0,"byteOffset":2472,"byteLength":96,"target":34963}],"buffers":[{"byteLength":2568,"uri":"snipeShack1.bin"}]}