{"asset":{"generator":"3D Builder","version":"2.0"},"scene":0,"scenes":[{"nodes":[0,1,2,3]}],"nodes":[{"mesh":0,"matrix":[25.001247406005859,0,0,0,0,-2.9803809411532711E-6,-25.001243591308594,0,0,25.001243591308594,-2.9803809411532711E-6,0,-0.5,1.8775806154280872E-7,1.5750285387039185,1]},{"mesh":1,"matrix":[18.715946197509766,-7.69309735915158E-8,16.57636833190918,0,16.576370239257813,-4.4896801227878314E-6,-18.715944290161133,0,3.0343455819092924E-6,25.001243591308594,-3.3099684060289292E-6,0,-2.624406099319458,2.6633722427504836E-7,0.64175158739089966,1]},{"mesh":2,"matrix":[12.513723373413086,1.3023020528635243E-6,-21.644153594970703,0,-21.644155502319336,6.9231953148118919E-7,-12.51372241973877,0,-5.2475556344688812E-8,25.001243591308594,1.4739543985342607E-6,0,0.43013158440589905,7.3239533548985492E-8,2.2649016380310059,1]},{"mesh":3,"matrix":[-9.18209171295166,3.9473707147408277E-6,-23.254072189331055,0,-23.254077911376953,5.7926163208321668E-6,9.18209171295166,0,6.8375347836990841E-6,25.001243591308594,1.5440882634720765E-6,0,0.99987858533859253,0.99999958276748657,0.24716928601264954,1]}],"meshes":[{"primitives":[{"attributes":{"POSITION":0,"TEXCOORD_0":6},"mode":4,"indices":12,"material":0},{"attributes":{"POSITION":1,"TEXCOORD_0":7},"mode":4,"indices":13,"material":0},{"attributes":{"POSITION":2,"TEXCOORD_0":8},"mode":4,"indices":14,"material":0},{"attributes":{"POSITION":3,"TEXCOORD_0":9},"mode":4,"indices":15,"material":0},{"attributes":{"POSITION":4,"TEXCOORD_0":10},"mode":4,"indices":16,"material":0},{"attributes":{"POSITION":5,"TEXCOORD_0":11},"mode":4,"indices":17,"material":0}]},{"primitives":[{"attributes":{"POSITION":18,"TEXCOORD_0":24},"mode":4,"indices":30,"material":0},{"attributes":{"POSITION":19,"TEXCOORD_0":25},"mode":4,"indices":31,"material":0},{"attributes":{"POSITION":20,"TEXCOORD_0":26},"mode":4,"indices":32,"material":0},{"attributes":{"POSITION":21,"TEXCOORD_0":27},"mode":4,"indices":33,"material":0},{"attributes":{"POSITION":22,"TEXCOORD_0":28},"mode":4,"indices":34,"material":0},{"attributes":{"POSITION":23,"TEXCOORD_0":29},"mode":4,"indices":35,"material":0}]},{"primitives":[{"attributes":{"POSITION":36,"TEXCOORD_0":42},"mode":4,"indices":48,"material":0},{"attributes":{"POSITION":37,"TEXCOORD_0":43},"mode":4,"indices":49,"material":0},{"attributes":{"POSITION":38,"TEXCOORD_0":44},"mode":4,"indices":50,"material":0},{"attributes":{"POSITION":39,"TEXCOORD_0":45},"mode":4,"indices":51,"material":0},{"attributes":{"POSITION":40,"TEXCOORD_0":46},"mode":4,"indices":52,"material":0},{"attributes":{"POSITION":41,"TEXCOORD_0":47},"mode":4,"indices":53,"material":0}]},{"primitives":[{"attributes":{"POSITION":54,"TEXCOORD_0":60},"mode":4,"indices":66,"material":0},{"attributes":{"POSITION":55,"TEXCOORD_0":61},"mode":4,"indices":67,"material":0},{"attributes":{"POSITION":56,"TEXCOORD_0":62},"mode":4,"indices":68,"material":0},{"attributes":{"POSITION":57,"TEXCOORD_0":63},"mode":4,"indices":69,"material":0},{"attributes":{"POSITION":58,"TEXCOORD_0":64},"mode":4,"indices":70,"material":0},{"attributes":{"POSITION":59,"TEXCOORD_0":65},"mode":4,"indices":71,"material":0}]}],"materials":[{"pbrMetallicRoughness":{"baseColorFactor":[1,1,1,1],"metallicFactor":0,"roughnessFactor":1,"baseColorTexture":{"index":0,"texCoord":0}},"alphaMode":"OPAQUE"}],"textures":[{"source":0,"sampler":0}],"images":[{"uri":"crate.png"}],"samplers":[{"magFilter":9729,"wrapS":10497,"wrapT":10497}],"accessors":[{"bufferView":0,"byteOffset":0,"count":4,"componentType":5126,"type":"VEC3","min":[0,0.042998004704713821,0.039998002350330353],"max":[0.039998002350330353,0.082998007535934448,0.039998002350330353]},{"bufferView":0,"byteOffset":48,"count":4,"componentType":5126,"type":"VEC3","min":[0,0.042998004704713821,0],"max":[0,0.082998007535934448,0.039998002350330353]},{"bufferView":0,"byteOffset":96,"count":4,"componentType":5126,"type":"VEC3","min":[0,0.042998004704713821,0],"max":[0.039998002350330353,0.042998004704713821,0.039998002350330353]},{"bufferView":0,"byteOffset":144,"count":4,"componentType":5126,"type":"VEC3","min":[0.039998002350330353,0.042998004704713821,0],"max":[0.039998002350330353,0.082998007535934448,0.039998002350330353]},{"bufferView":0,"byteOffset":192,"count":4,"componentType":5126,"type":"VEC3","min":[0,0.082998007535934448,0],"max":[0.039998002350330353,0.082998007535934448,0.039998002350330353]},{"bufferView":0,"byteOffset":240,"count":4,"componentType":5126,"type":"VEC3","min":[0,0.042998004704713821,0],"max":[0.039998002350330353,0.082998007535934448,0]},{"bufferView":1,"byteOffset":0,"count":4,"componentType":5126,"type":"VEC2"},{"bufferView":1,"byteOffset":32,"count":4,"componentType":5126,"type":"VEC2"},{"bufferView":1,"byteOffset":64,"count":4,"componentType":5126,"type":"VEC2"},{"bufferView":1,"byteOffset":96,"count":4,"componentType":5126,"type":"VEC2"},{"bufferView":1,"byteOffset":128,"count":4,"componentType":5126,"type":"VEC2"},{"bufferView":1,"byteOffset":160,"count":4,"componentType":5126,"type":"VEC2"},{"bufferView":2,"byteOffset":0,"count":6,"componentType":5125,"type":"SCALAR"},{"bufferView":2,"byteOffset":24,"count":6,"componentType":5125,"type":"SCALAR"},{"bufferView":2,"byteOffset":48,"count":6,"componentType":5125,"type":"SCALAR"},{"bufferView":2,"byteOffset":72,"count":6,"componentType":5125,"type":"SCALAR"},{"bufferView":2,"byteOffset":96,"count":6,"componentType":5125,"type":"SCALAR"},{"bufferView":2,"byteOffset":120,"count":6,"componentType":5125,"type":"SCALAR"},{"bufferView":3,"byteOffset":0,"count":4,"componentType":5126,"type":"VEC3","min":[0,0.042998004704713821,0.039998002350330353],"max":[0.039998002350330353,0.082998007535934448,0.039998002350330353]},{"bufferView":3,"byteOffset":48,"count":4,"componentType":5126,"type":"VEC3","min":[0,0.042998004704713821,0],"max":[0,0.082998007535934448,0.039998002350330353]},{"bufferView":3,"byteOffset":96,"count":4,"componentType":5126,"type":"VEC3","min":[0,0.042998004704713821,0],"max":[0.039998002350330353,0.042998004704713821,0.039998002350330353]},{"bufferView":3,"byteOffset":144,"count":4,"componentType":5126,"type":"VEC3","min":[0.039998002350330353,0.042998004704713821,0],"max":[0.039998002350330353,0.082998007535934448,0.039998002350330353]},{"bufferView":3,"byteOffset":192,"count":4,"componentType":5126,"type":"VEC3","min":[0,0.082998007535934448,0],"max":[0.039998002350330353,0.082998007535934448,0.039998002350330353]},{"bufferView":3,"byteOffset":240,"count":4,"componentType":5126,"type":"VEC3","min":[0,0.042998004704713821,0],"max":[0.039998002350330353,0.082998007535934448,0]},{"bufferView":4,"byteOffset":0,"count":4,"componentType":5126,"type":"VEC2"},{"bufferView":4,"byteOffset":32,"count":4,"componentType":5126,"type":"VEC2"},{"bufferView":4,"byteOffset":64,"count":4,"componentType":5126,"type":"VEC2"},{"bufferView":4,"byteOffset":96,"count":4,"componentType":5126,"type":"VEC2"},{"bufferView":4,"byteOffset":128,"count":4,"componentType":5126,"type":"VEC2"},{"bufferView":4,"byteOffset":160,"count":4,"componentType":5126,"type":"VEC2"},{"bufferView":5,"byteOffset":0,"count":6,"componentType":5125,"type":"SCALAR"},{"bufferView":5,"byteOffset":24,"count":6,"componentType":5125,"type":"SCALAR"},{"bufferView":5,"byteOffset":48,"count":6,"componentType":5125,"type":"SCALAR"},{"bufferView":5,"byteOffset":72,"count":6,"componentType":5125,"type":"SCALAR"},{"bufferView":5,"byteOffset":96,"count":6,"componentType":5125,"type":"SCALAR"},{"bufferView":5,"byteOffset":120,"count":6,"componentType":5125,"type":"SCALAR"},{"bufferView":6,"byteOffset":0,"count":4,"componentType":5126,"type":"VEC3","min":[0,0.042998004704713821,0.039998002350330353],"max":[0.039998002350330353,0.082998007535934448,0.039998002350330353]},{"bufferView":6,"byteOffset":48,"count":4,"componentType":5126,"type":"VEC3","min":[0,0.042998004704713821,0],"max":[0,0.082998007535934448,0.039998002350330353]},{"bufferView":6,"byteOffset":96,"count":4,"componentType":5126,"type":"VEC3","min":[0,0.042998004704713821,0],"max":[0.039998002350330353,0.042998004704713821,0.039998002350330353]},{"bufferView":6,"byteOffset":144,"count":4,"componentType":5126,"type":"VEC3","min":[0.039998002350330353,0.042998004704713821,0],"max":[0.039998002350330353,0.082998007535934448,0.039998002350330353]},{"bufferView":6,"byteOffset":192,"count":4,"componentType":5126,"type":"VEC3","min":[0,0.082998007535934448,0],"max":[0.039998002350330353,0.082998007535934448,0.039998002350330353]},{"bufferView":6,"byteOffset":240,"count":4,"componentType":5126,"type":"VEC3","min":[0,0.042998004704713821,0],"max":[0.039998002350330353,0.082998007535934448,0]},{"bufferView":7,"byteOffset":0,"count":4,"componentType":5126,"type":"VEC2"},{"bufferView":7,"byteOffset":32,"count":4,"componentType":5126,"type":"VEC2"},{"bufferView":7,"byteOffset":64,"count":4,"componentType":5126,"type":"VEC2"},{"bufferView":7,"byteOffset":96,"count":4,"componentType":5126,"type":"VEC2"},{"bufferView":7,"byteOffset":128,"count":4,"componentType":5126,"type":"VEC2"},{"bufferView":7,"byteOffset":160,"count":4,"componentType":5126,"type":"VEC2"},{"bufferView":8,"byteOffset":0,"count":6,"componentType":5125,"type":"SCALAR"},{"bufferView":8,"byteOffset":24,"count":6,"componentType":5125,"type":"SCALAR"},{"bufferView":8,"byteOffset":48,"count":6,"componentType":5125,"type":"SCALAR"},{"bufferView":8,"byteOffset":72,"count":6,"componentType":5125,"type":"SCALAR"},{"bufferView":8,"byteOffset":96,"count":6,"componentType":5125,"type":"SCALAR"},{"bufferView":8,"byteOffset":120,"count":6,"componentType":5125,"type":"SCALAR"},{"bufferView":9,"byteOffset":0,"count":4,"componentType":5126,"type":"VEC3","min":[0,0.042998004704713821,0.039998002350330353],"max":[0.039998002350330353,0.082998007535934448,0.039998002350330353]},{"bufferView":9,"byteOffset":48,"count":4,"componentType":5126,"type":"VEC3","min":[0,0.042998004704713821,0],"max":[0,0.082998007535934448,0.039998002350330353]},{"bufferView":9,"byteOffset":96,"count":4,"componentType":5126,"type":"VEC3","min":[0,0.042998004704713821,0],"max":[0.039998002350330353,0.042998004704713821,0.039998002350330353]},{"bufferView":9,"byteOffset":144,"count":4,"componentType":5126,"type":"VEC3","min":[0.039998002350330353,0.042998004704713821,0],"max":[0.039998002350330353,0.082998007535934448,0.039998002350330353]},{"bufferView":9,"byteOffset":192,"count":4,"componentType":5126,"type":"VEC3","min":[0,0.082998007535934448,0],"max":[0.039998002350330353,0.082998007535934448,0.039998002350330353]},{"bufferView":9,"byteOffset":240,"count":4,"componentType":5126,"type":"VEC3","min":[0,0.042998004704713821,0],"max":[0.039998002350330353,0.082998007535934448,0]},{"bufferView":10,"byteOffset":0,"count":4,"componentType":5126,"type":"VEC2"},{"bufferView":10,"byteOffset":32,"count":4,"componentType":5126,"type":"VEC2"},{"bufferView":10,"byteOffset":64,"count":4,"componentType":5126,"type":"VEC2"},{"bufferView":10,"byteOffset":96,"count":4,"componentType":5126,"type":"VEC2"},{"bufferView":10,"byteOffset":128,"count":4,"componentType":5126,"type":"VEC2"},{"bufferView":10,"byteOffset":160,"count":4,"componentType":5126,"type":"VEC2"},{"bufferView":11,"byteOffset":0,"count":6,"componentType":5125,"type":"SCALAR"},{"bufferView":11,"byteOffset":24,"count":6,"componentType":5125,"type":"SCALAR"},{"bufferView":11,"byteOffset":48,"count":6,"componentType":5125,"type":"SCALAR"},{"bufferView":11,"byteOffset":72,"count":6,"componentType":5125,"type":"SCALAR"},{"bufferView":11,"byteOffset":96,"count":6,"componentType":5125,"type":"SCALAR"},{"bufferView":11,"byteOffset":120,"count":6,"componentType":5125,"type":"SCALAR"}],"bufferViews":[{"buffer":0,"byteOffset":0,"byteLength":288,"byteStride":12,"target":34962},{"buffer":0,"byteOffset":288,"byteLength":192,"byteStride":8,"target":34962},{"buffer":0,"byteOffset":480,"byteLength":144,"target":34963},{"buffer":0,"byteOffset":624,"byteLength":288,"byteStride":12,"target":34962},{"buffer":0,"byteOffset":912,"byteLength":192,"byteStride":8,"target":34962},{"buffer":0,"byteOffset":1104,"byteLength":144,"target":34963},{"buffer":0,"byteOffset":1248,"byteLength":288,"byteStride":12,"target":34962},{"buffer":0,"byteOffset":1536,"byteLength":192,"byteStride":8,"target":34962},{"buffer":0,"byteOffset":1728,"byteLength":144,"target":34963},{"buffer":0,"byteOffset":1872,"byteLength":288,"byteStride":12,"target":34962},{"buffer":0,"byteOffset":2160,"byteLength":192,"byteStride":8,"target":34962},{"buffer":0,"byteOffset":2352,"byteLength":144,"target":34963}],"buffers":[{"byteLength":2496,"uri":"crates.bin"}]}